<svg width="200" height="470" xmlns="http://www.w3.org/2000/svg">
 <g>
  <title>Layer 1</title>
  <path name="腹部" fill-rule="evenodd" clip-rule="evenodd" fill="#FEDA00" d="m68.225403,202.936005c0.052979,-6.921997 2.5,-13.209991 5.421997,-19.291992c2.877991,-5.994995 5.54303,-11.985992 5.632996,-18.786011c0.687012,-1.731995 0.395996,-3.549011 0.315979,-5.307983c-0.106995,-2.38501 0.75,-3.737 3.188049,-3.939026c1.677002,-0.143982 3.359009,-0.080994 5.039978,-0.100983c1.913025,0.050995 3.814026,-0.014008 5.655029,-0.64502c1.941956,-0.38797 3.905945,-0.453979 5.878967,-0.421997c3.961975,0.108002 7.924988,0.012024 11.885986,0.055023c2.486023,-0.003021 4.937988,0.368988 7.39801,0.684998c3.405029,0.453979 6.163025,1.431 4.596985,5.813995c0.401001,7.579987 3.348022,14.28299 6.723999,20.960999c3.486023,6.898987 5.063049,14.511993 6.886047,21.994995c-1.895996,4.354004 -6.06604,3.53299 -9.577026,4.222992c-1.778992,-0.001984 -3.562988,-0.03299 -5.263,0.64801c-7.093018,1.506012 -14.25,1.661987 -21.442017,0.996002c-1.833984,-0.571991 -3.70697,-0.792999 -5.623962,-0.576996c-2.812988,0.524994 -5.572998,0.34201 -8.278992,-0.609009c-1.623047,-0.613007 -3.318054,-0.446991 -5.001038,-0.455994c-4.842957,-0.819 -10.32196,-0.014008 -13.437988,-5.242004z" id="svg_1"/>
  <path name="胸部" fill-rule="evenodd" clip-rule="evenodd" fill="#FEB400" d="m73.970459,142.929993c-1.971008,-1.950989 -3.117004,-4.242004 -2.921997,-7.084991c-0.629028,-2.319 -0.661987,-4.636017 0.018982,-6.951019c2.520996,-8.640991 5.637024,-17.130981 6.635986,-26.155975c0.14502,-1.297028 0.200012,-2.604004 0.297058,-3.906006c0.608948,-2.256012 1.260986,-2.669006 3.169983,-2.007996c1.341003,1.498993 1.242004,3.386993 1.419006,5.198975c0.248962,0.951019 0.467957,1.919006 0.555969,2.897003c0.846008,9.457001 4.975037,16.503021 14.387024,19.690002c2.117981,1.356018 4.256958,1.281006 6.411987,0.080994c4.218994,-2.228973 9.458008,-3.347992 11.437012,-8.27298c1.781982,-4.437012 3.464966,-8.987 4.296997,-13.759003c0.281006,-1.612 0.091003,-3.373993 1.479004,-4.631989c1.810974,-2.161011 3.020996,-1.104004 4.080017,0.76297c0.845947,1.173004 1.191956,2.521027 1.381958,3.924011c1.210999,7.674011 2.812988,15.218018 5.769043,22.477997c1.852966,4.550018 1.445984,9.402008 0.23999,14.136017c-0.502991,1.973999 -1.234009,3.798981 -3.47699,4.419983c-2.561035,3.667023 -4.478027,7.606018 -5.140015,12.080994c-1.923035,0.897003 -3.862,0.729004 -5.809021,0.086029c-2.078979,0.95697 -4.127014,-0.45401 -6.197998,-0.084015c-4.27301,-0.759003 -8.546997,-0.774994 -12.817993,0.011993c-2.039001,0.022003 -4.078003,0.044006 -6.117004,0.065002c-1.512024,0.854004 -3.15802,0.278992 -4.732971,0.447998c-1.565002,0 -3.133057,0.001007 -4.697998,0c-1.516052,-0.018982 -3.037048,-0.072998 -4.5,0.451019c-1.81604,-4.593018 -0.82605,-10.22702 -5.16803,-13.877014z" id="svg_2"/>
  <path name="头部" fill-rule="evenodd" clip-rule="evenodd" fill="#FE8F00" d="m130.740417,32.039993c-1.187988,-12.298996 -9.052002,-20.953995 -21.487,-23.959c-12.593994,-3.041992 -23.903992,-1.119995 -32.703979,9.744995c-7.105042,8.772003 -4.862,20.428009 -9.947998,29.731003c3.787964,4.391998 -0.640991,7.109009 -2.577026,10.964996c5.099976,-1.728989 4.117004,1.115005 3.536987,3.729004c-0.216003,0.969009 -0.389954,1.969009 -0.407959,2.957993c-0.054016,2.828003 -0.895996,7.683014 0.134949,8.130005c4.163025,1.800995 4.100037,6.811005 7.705017,8.634003c0.372009,0.187988 0.757996,0.350006 1.283997,0.589996c0.346008,-1.518982 -0.769958,-3.013 0.458984,-4.30899c2.210022,3.053986 4.54303,5.843994 7.96106,7.431c0.883972,-0.626007 -0.246033,-2.338989 0.84198,-2.554016c2.377014,0.723022 2.511963,4.269012 5.497986,2.916016l0,0c0,0 0,0 0,0.001007c0.423035,6.367981 -3.383972,9.358978 -8.822021,11.046997c-1.437988,1.713989 0.237,4.009979 -1.070984,5.748993c0.298035,0.763 0.835022,1.519989 0.856018,2.290009c0.289001,10.431 5.471985,17.256989 15.162964,20.819977c2.288025,0.604004 4.573059,0.678009 6.854004,-0.037994c3.032043,-1.997986 7.067017,-2.075989 9.598999,-5.039978c5.628052,-6.59201 7.030029,-14.574005 7.540039,-22.85202c-6.757019,-0.53598 -11.429016,-3.345978 -11.81604,-10.830994c2.177002,-1.583984 3.466003,-4.363983 6.533997,-4.868988c0.175049,1.115997 0.344055,2.194977 0.53302,3.398987c2.776001,-1.528992 5.028015,-3.372009 6.798035,-5.786011c2.547974,-1.178986 0.738953,1.82901 1.901978,1.980011c3.567017,-0.872986 5.276978,-3.872009 5.789978,-6.812988c0.776001,-4.455994 2.348999,0.712006 3.400024,-0.868011c-0.481995,-13.911983 -2.19397,-28.072994 -3.557007,-42.195995l0,-0.000004z" id="svg_3"/>
  <g id="svg_23">
   <path name="其他" fill-rule="evenodd" clip-rule="evenodd" fill="#C4D831" d="m85.607422,345.890015l-22.956966,0c-1.958008,16.922974 -0.885986,33.786987 1.312012,50.763c1.327999,10.252014 1.659969,20.450989 -0.526001,30.752014c-1.434998,6.761963 -1.911987,13.815002 -1.968994,20.745972c-0.030029,3.742004 -0.801025,6.453003 -3.786987,8.509033c-1.083008,0.745972 -2.698059,1.230957 -2.341003,2.833984c0.429993,1.927002 2.444946,1.69397 3.766968,1.651001c3.65802,-0.117004 7.403011,-0.781982 10.854008,0.672974c5.008965,2.113037 7.913017,-0.875 7.260002,-4.658997c-1.031006,-5.971985 1.736023,-11.639954 0.339966,-17.333984c-4.265991,-17.395996 -2.708984,-34.929993 0.821045,-51.914001c2.904968,-13.989014 5.640991,-27.932007 7.22596,-42.020996l-0.000008,0z" id="svg_24"/>
   <path name="其他" fill-rule="evenodd" clip-rule="evenodd" fill="#C4D831" d="m121.948425,380.541992c5.497986,19.653015 6.177979,39.578003 2.572021,59.651978c-0.32605,1.817993 -0.807007,3.631042 0.024963,5.386047c1.353027,2.850952 1.465027,5.469971 0.207031,8.566956c-1.400024,3.446045 1.906006,9.130005 4.500977,8.337036c4.892029,-1.497009 9.789001,-1.545044 14.773987,-1.454041c1.108032,0.020996 2.528992,0.006042 2.867004,-1.448975c0.322998,-1.390991 -0.846008,-1.958984 -1.815979,-2.643982c-2.332031,-1.644043 -4.835999,-3.384033 -4.224976,-6.728027c1.019958,-5.56897 -0.063049,-11.184998 -1.269043,-16.304993c-4.312988,-18.301025 -1.268982,-36.372986 0.067993,-54.559021c0.780029,-10.605957 1.65802,-21.316956 -0.401978,-31.854004c-0.104004,-0.533997 -0.207031,-1.067993 -0.309998,-1.602966l-24.325989,0c1.218994,11.708984 4.132996,23.208008 7.333984,34.653992z" id="svg_25"/>
  </g>
  <path name="肌肉关节" fill-rule="evenodd" clip-rule="evenodd" fill="#CBE96A" d="m141.790405,235.044006c-0.171997,-3.981995 0.021973,-8.061005 -0.796997,-11.916992c-1.356995,-6.393005 -0.14502,-13.363007 -4.14502,-19.174011c-2.864014,2.313019 -6.296997,2.735992 -9.795959,2.938019c-1.467041,1.181 -3.433044,-0.189026 -4.906006,0.957977c-7.329041,1.093018 -14.708008,1.067993 -22.088989,0.986023c-1.832031,-1.186005 -4.094055,0.298981 -5.915039,-0.955017c-2.359009,1.423004 -4.705994,0.190002 -7.05896,-0.033997c-1.468018,-1.140015 -3.423035,0.220001 -4.88501,-0.950012c-4.988037,-0.154999 -9.756042,-1.091003 -13.975037,-3.960999c-1.107971,0.412994 -1.979004,0.917023 -2.273987,2.290009c-2.111019,9.802002 -3.862972,19.658997 -4.833981,29.643005c-0.14502,1.47998 -0.234009,3.070984 1.89801,3.309998c0.000977,0 0.001953,0 0.002991,0c-0.001038,0 -0.001038,0 -0.002014,0.001007c0.369995,10.470001 0.643005,20.942993 1.143978,31.404999c0.381042,7.962006 1.27301,15.902008 1.546021,23.865997c0.432983,12.626007 2.229004,25.509003 -0.580994,37.830017c-1.111023,4.877991 -1.911983,9.745972 -2.475033,14.609009l22.957027,0c0.987,-8.775024 1.531006,-17.607056 1.385986,-26.54303c-0.138977,-8.498993 1.233032,-16.885986 2.819031,-25.225006c3.292969,-17.298981 6.847961,-34.557007 8.309998,-52.147003c-0.075989,-0.099976 -0.152039,-0.197998 -0.229004,-0.298004c0.086975,0.042023 0.174011,0.084015 0.26001,0.137024l-0.031006,0.16098c3.283997,-1.578003 0.781982,-5.54599 2.985962,-7.779999c1.945007,1.328003 1.940002,3.141998 1.976013,4.914001c0.028015,1.391022 0.151001,2.667023 1.890991,2.930023c-0.019958,8.020996 1.429016,15.875977 2.653992,23.756989c3.128052,20.130981 8.614014,39.950989 6.747009,60.701019c-0.588989,6.544983 -0.422974,13 0.241028,19.393982l24.325989,0c-2.479004,-12.856995 -4.440979,-25.601013 -2.947998,-38.903992c1.942993,-17.31601 2.754028,-34.768005 3.770996,-52.177002c0.30603,-5.231995 1.437988,-10.585999 -0.504028,-15.785004c2.692078,-0.14801 2.60907,-2.138031 2.530029,-3.980011z" id="svg_26"/>
  <path name="指甲" fill-rule="evenodd" clip-rule="evenodd" fill="#FEDA00" d="m151.456421,259.664001c1.716003,-2.010986 0.973022,-4.453003 2.138977,-6.395996c1.292053,2.118011 1.299011,4.423004 1.670044,6.67099c0.231995,1.40802 -0.600037,3.630005 2.023987,3.876007c0.64801,-2.936005 0.138977,-5.932007 0.455994,-8.881989c-0.052002,0.932983 0.570007,1.470001 1.179993,2.014984c1.348022,2.434998 0.737,5.777008 3.737976,8.272003c0.331055,-4.522003 -1.389954,-8.377014 -0.156982,-12.540009c1.015991,2.307007 1.859985,4.227997 2.705994,6.149017c-0.092957,1.404999 0.122009,2.647003 1.699036,3.419983c0.279968,-1.792999 0.518005,-3.342987 -0.623047,-4.707977c0,-0.001007 0,-0.002014 -0.000977,-0.004028c-0.53302,-3.401978 -1.065002,-6.802979 -1.598022,-10.198975c1.416016,-0.89801 2.835022,1.595001 4.393005,-0.562012c-2.817993,-4.721008 -4.534973,-10.306 -9.639954,-13.877991c-0.520996,-0.365021 -0.991028,-0.759003 -1.421997,-1.174011l-10.821045,0c1.351013,9.229004 1.830017,18.612 4.257019,27.940002z" id="svg_27"/>
  <path name="指甲" fill-rule="evenodd" clip-rule="evenodd" fill="#FEDA00" d="m43.447453,231.723999c-0.848999,1.141998 -1.911987,2.165985 -3.286987,3.049011c-4.86499,3.126984 -6.424011,8.615997 -9.830994,14.144989c2.630981,-1.020996 3.969971,-1.539001 5.570984,-2.160004c0.266968,4.925018 -3.072018,9.089996 -1.953979,15.209991c1.500977,-3.523987 2.453003,-5.757996 3.403992,-7.990997c0.343994,-0.15799 0.56897,-0.888977 0.945984,-0.52298c0.388977,0.375977 0.208984,1.041992 -0.021973,1.569977c-0.279053,3.141022 -0.557007,6.279999 -0.902035,10.160004c3.03503,-2.165985 2.416016,-5.246979 3.827023,-7.289978c0.748962,-0.831024 1.268982,-1.752014 1.266968,-3.223022c0.208008,3.735016 -0.337952,7.012024 0.79303,10.154022c2.875977,-3.266022 1.016968,-8.292999 4.109985,-11.847015c1.23999,2.21701 -0.365967,4.541016 1.208984,6.406006c1.212036,-1.292999 1.239014,-2.790009 1.537048,-4.227997c1.609985,-7.772003 2.792969,-15.625 4.223999,-23.433014l-10.892029,0l0,0.001007z" id="svg_28"/>
  <path name="皮肤" fill-rule="evenodd" clip-rule="evenodd" fill="#CBE96A" d="m73.970459,142.929993c-3.598022,-3.709991 -2.921021,-7.084991 -2.921021,-7.084991c-0.643982,-0.920013 -1.063965,-2.938019 -1.063965,-2.938019c1.416992,-5.233978 5.138,-17.54599 5.138,-17.54599c2.76001,-9.229004 2.877014,-16.516998 2.877014,-16.527985c-17.06805,2.886993 -20.525997,6.78299 -20.931026,24.188995c-0.231995,9.974976 -0.211975,19.955994 -0.205017,29.93399c0.007019,9.359985 -1.177002,18.468994 -4.414978,27.333008c-3.098999,8.481995 -4.395996,17.355988 -4.312012,26.384003c0.061035,6.519989 -0.731995,12.914001 -2.174988,19.25c-0.497009,2.181976 -1.267029,4.122986 -2.515015,5.802002l10.890991,0c1.221008,-6.665009 2.622009,-13.298004 4.631039,-19.821014c5.062988,-16.441986 9.888969,-32.938995 10.547974,-50.411987c0.234985,-6.248993 1.06897,-12.837006 4.453003,-18.562012l0,0z" id="svg_29"/>
  <path name="皮肤" fill-rule="evenodd" clip-rule="evenodd" fill="#DAE252" d="m154.04541,221.643005c-1.007019,-13.735992 -1.124023,-27.583008 -4.039001,-41.113007c-1.810974,-8.398987 -4.994019,-16.423981 -5.093018,-25.276001c-0.143982,-12.779999 -1.024963,-25.553986 -1.729004,-38.321991c-0.561951,-10.174011 -5.790955,-15.678986 -15.979004,-17.161987c-2.607971,-0.28302 -0.927002,2.228973 -1.942993,2.983002c0.437012,3.339996 1.057007,6.626984 1.821045,9.878998c0.304993,1.171997 1.347961,5.138 2.455994,8.809998c0.513,1.59198 1.049988,3.178986 1.625977,4.760986c0.093018,0.252991 0.173035,0.507996 0.255005,0.761993c0.008972,0.020996 0.018005,0.042999 0.026001,0.063019c0,0 1.671021,3.414001 0.768982,8.696991c-0.395996,2.748993 -1.406006,5.450012 -3.063965,8.022003c1.763,1.385986 1.677002,3.462006 2.008972,5.381989c2.567017,14.855011 2.590027,30.109009 7.42804,44.619019c3.890991,11.667999 6.317993,23.729004 8.297974,35.855988c0.11499,0.705017 0.211975,1.414001 0.315002,2.121002l10.820984,0c-2.678955,-2.584015 -3.685974,-6.105011 -3.97699,-10.082001z" id="svg_30"/>
 </g>
</svg>