<svg width="200" height="470" xmlns="http://www.w3.org/2000/svg">
 <g>
  <title>Layer 1</title>
  <path name="腹部" fill-rule="evenodd" clip-rule="evenodd" fill="#BBA41A" d="m69.880981,159.113007c6.357002,-1.477997 12.456001,-4.108002 19.103027,-4.300995c2.224968,-1.106995 4.738953,0.230011 6.968994,-0.825012c11.836975,0.124023 23.575989,1.113007 35.107971,3.945007c-1.729004,15.759003 2.713989,30.744995 5.742004,45.908997c-1.010986,2.609009 -3.460022,2.94101 -5.687012,3.360016c-20.237976,3.807983 -40.458008,4.153992 -60.585999,-0.72702c-2.21698,-0.537994 -5.123955,-0.47998 -5.64698,-3.755981c1.140022,-9.563019 4.519958,-18.673004 5.534004,-28.292023c0.549011,-5.199982 0.814995,-10.246002 -0.536011,-15.312988z" id="svg_1"/>
  <path name="其他" fill-rule="evenodd" clip-rule="evenodd" fill="#F9E98F" d="m65.875,341.859985c4.932007,0.007996 9.892029,-0.307983 14.786987,0.122986c4.174995,0.366028 6.884033,-0.398987 7.153015,-5.086975c-0.444031,14.309998 5.572014,28.398987 2.875977,42.552002c-3.307976,17.36499 -2.415962,34.730957 -2.802979,52.130981c-0.083008,3.703979 0.262016,7.296021 1.747009,10.726013c0.955994,2.205994 1.359009,4.450989 0.177979,6.690979c-1.119995,2.122986 -0.398987,4.10498 0.041008,6.252014c1.510017,7.378967 -1.392998,10.128967 -8.590996,8.934021c-3.406982,-0.565002 -6.95697,-0.280029 -10.442024,-0.374023c-1.545944,-0.041016 -3.106987,-0.169006 -3.612,-1.966003c-0.45697,-1.627014 0.760994,-2.338013 1.934036,-3.067993c2.241997,-1.397034 3.880974,-3.421021 3.804008,-6.074036c-0.230042,-7.981995 1.770996,-15.843994 1.039001,-23.850952c-1.462036,-15.976013 -2.338013,-31.976013 -6.792053,-47.585022c-3.68195,-12.897949 -3.013977,-26.195007 -1.31897,-39.403992z" id="svg_2"/>
  <path name="其他" fill-rule="evenodd" clip-rule="evenodd" fill="#F9E98F" d="m113.781013,341.765991c4.715996,2.262024 9.715996,0.588989 14.567009,1.015015c2.458008,0.216003 4.953003,0.005005 7.430969,-0.013c2.593018,16.411987 -0.370972,32.20697 -4.10199,48.200989c-3.575012,15.328003 -4.812988,31.164978 -4.563965,46.976013c0.076965,4.947998 1.050964,9.875 0.985962,14.890991c-0.032959,2.546021 1.822998,4.567017 3.963013,6.011963c1.184998,0.798035 2.22699,1.607056 1.666992,3.197021c-0.437988,1.25 -1.546021,1.736023 -2.776978,1.723999c-5.153999,-0.052979 -10.251038,0.487 -15.379028,0.937012c-4.640015,0.406006 -4.70697,-3.971008 -4.619995,-7.263c0.22699,-8.5 0.988037,-16.96698 2.197998,-25.393982c1.906006,-13.286011 0.531006,-26.619995 -1.10199,-39.710999c-1.819031,-14.587036 -3.687988,-28.903015 0.674988,-43.277039c0.723022,-2.380981 -0.414001,-5.026001 1.057014,-7.294983z" id="svg_3"/>
  <path name="头部" fill-rule="evenodd" clip-rule="evenodd" fill="#FE9000" d="m131.59198,30.993c-0.255005,-2.685989 -4.174988,-5.571991 -0.112,-8.372c0.031982,-0.02099 -0.450989,-1.24 -0.900024,-1.444c-4.923943,-2.233 -7.136963,-7.47799 -11.330994,-10.306c-3.971985,-2.68001 -7.104004,-8.503 -13.520996,-5.21c-0.255974,0.13101 -1.013977,-0.172 -1.163994,-0.465c-1.542,-2.994 -3.859993,-1.444 -6.211006,-1.513c-15.643005,-0.45999 -24.838013,7.957 -29.078003,21.84801c-1.402954,4.599001 -3.291992,9.858002 -0.846985,15.459991c1.848022,4.234009 5.422005,8.237999 6.091003,11.959999c1.763,9.813011 11.286987,14.261013 13.77002,23.111012c0.083008,0.296997 0.389946,0.529999 0.592957,0.793976c0.138,7.238014 -4.441956,10.880005 -10.303955,13.576019c-0.692017,0.317993 -1.574036,0.562996 -1.652046,1.578003c3.325996,2.375977 6.967041,3.862 11.109993,3.932983c1.524048,1.042999 3.482063,-0.255981 4.982063,0.924004c0.303947,0.005997 0.606987,0.019997 0.909966,0.040016c1.588989,0.882996 3.315979,0.270996 4.971008,0.453979c3.013969,0.247009 6.078003,-0.513 9.057007,0.455017c5.942017,-0.934021 11.823975,-2.059021 16.964966,-5.47702c-1.100952,-0.721992 -2.117981,-1.644989 -3.312988,-2.130981c-6.017998,-2.450005 -9.429993,-6.544006 -8.807983,-13.34201c2.258972,-2.699005 3.976013,-5.700005 5.029961,-9.063004c0.334053,-1.065994 0.206001,-2.286987 1.59803,-2.86499c3.965019,-1.647003 5.492981,-5.460003 6.211975,-9.013004c0.654053,-3.226997 1.688049,-6.313 3.557007,-8.58799c4.250061,-5.17601 2.939026,-10.622009 2.39502,-16.344009z" id="svg_4"/>
  <path name="肌肉关节" fill-rule="evenodd" clip-rule="evenodd" fill="#D7EE7D" d="m141.552979,238.015991c-0.213013,-10.881989 -2.840027,-21.558014 -2.570007,-32.459991c0.041016,-1.64801 -0.796997,-1.977997 -2.177979,-1.716003c-1.381042,0.539001 -2.718994,1.309998 -4.151001,1.580994c-15.987,3.037994 -32.109985,4.428009 -48.278015,2.123993c-6.58503,-0.937988 -13.499023,-1.214996 -19.492004,-4.828003c-3.966984,0.837006 -1.658993,4.140015 -2.151981,6.152008c-2.369991,9.674011 -3.54998,19.557007 -3.712032,29.53299c-0.036987,2.253021 -0.421997,4.856018 2.731991,5.647003c-1.585999,15.262024 -0.942989,30.480011 0.667061,45.705017c1.829952,17.319 8.813961,34.308014 3.45599,52.103973c1.402946,1.469055 3.268013,1.409058 5.063972,1.457031c4.11499,0.106995 8.239006,-0.130005 12.345024,0.124023c3.118965,0.192993 4.724007,-0.756042 4.205994,-4.127014c-0.122978,-0.80603 -0.036011,-1.64502 0.323982,-2.416992c1.892998,-15.817017 5.07299,-31.472015 5.368034,-47.492035c0.263,-14.299988 3.436951,-28.319977 4.712952,-42.53299l0,0l0,0c2.014038,-2.39801 4.027039,-4.752014 6.177002,-0.119019c-0.011963,17.805023 3.985046,35.240021 4.669006,53.03302c0.539001,14.036987 3.278015,27.989014 5.041016,41.97998c0.007019,0.924011 0.447998,1.733032 1.312019,1.848999c6.937981,0.926025 13.903008,2.132019 20.685966,-0.846985c-2.438965,-9.396973 -3.72998,-18.915009 -1.382996,-28.479004c5.27002,-21.470001 6.346008,-43.268005 5.575012,-65.234985c-0.062988,-1.776001 0.330994,-3.681 -0.963989,-5.249023l-0.001038,0l0.001038,-0.000977c2.304993,-1.296997 2.596008,-3.184998 2.544983,-5.786011z" id="svg_13"/>
  <path name="胸部" fill-rule="evenodd" clip-rule="evenodd" fill="#FEDA00" d="m69.880981,159.113007c-2.947021,-10.174011 -3.25,-20.766998 -4.958008,-31.137993c-0.979004,-0.913002 -1.029964,-2.096016 -0.977962,-3.311012c1.191952,-4.803993 0.473995,-9.699982 0.653988,-14.552002c0.024963,-3.298981 0.041992,-6.600983 0.018982,-9.901001c-0.026001,-0.811981 0.065002,-1.61499 0.213013,-2.413002c-0.11499,-1.662987 0.929016,-2.595993 2.320984,-2.663994c3.567024,-0.17498 6.289001,-2.815002 9.771973,-3.125c3.89801,0.166016 7.159058,2.637001 10.996033,3.026001c1.603027,0.563995 3.294006,0.56501 4.955017,0.765015c0.48999,0.057014 0.968987,0.159004 1.44397,0.281013c1.671997,0.569969 3.403992,0.465965 5.127991,0.454979c2.524048,-0.010979 5.048042,0.016998 7.567017,-0.028008c6.330994,0.175018 11.819031,-3.28299 17.903992,-4.168983c3.768982,1.154999 7.536011,2.311012 11.304993,3.466003c0.041992,0.743988 0.125,1.484985 0.101013,2.231995c-0.034973,2.75 -0.062012,5.496979 0.049988,8.243996c0.137024,1.478996 0.502991,2.942009 0.361023,4.444c-0.570007,2.631004 -0.754028,5.239983 0.453979,7.770988c0.278015,3.891029 1.721985,7.900002 -1.104004,11.494019c-1.674988,9.313995 -3.350952,18.627991 -5.024963,27.940979c-2.080994,1.319 -4.213005,0.433014 -6.309998,0.10202c-9.379997,-1.479004 -18.804008,-2.487 -28.302002,-2.69101c-2.491997,-0.122986 -4.98999,-0.320007 -7.421997,0.493988c-4.556999,0.710022 -9.004028,1.89502 -13.442009,3.122009c-1.881966,0.518982 -3.768013,1.356995 -5.703011,0.154999z" id="svg_14"/>
  <path name="指甲" fill-rule="evenodd" clip-rule="evenodd" fill="#FFF100" d="m18.88098,232.890015c-0.575989,2.048004 -1.54797,3.89801 -3.622009,5.144989c-5.49499,3.300018 -6.574,9.347015 -9.54699,14.21402c-0.42301,0.692993 -0.93399,1.536987 -0.13199,2.234985c0.763,0.665009 1.543,0.088989 2.24398,-0.325989c0.83301,-0.494019 1.50202,-1.380005 2.883,-0.989014c-0.099,5.287018 -2.608,10.529999 -1.26898,16.993011c2.504,-4.031006 1.974,-8.136017 4.73297,-11.850006c0.726009,5.164001 -1.214971,9.656006 0.50299,14.449005c2.821051,-3.549011 2.301029,-7.450012 3.455019,-10.82901c0.578001,-0.755005 1.150021,-2.522003 1.746031,-0.01001c0.300961,3.137024 -0.59503,6.453003 1.643009,10.771027c0.617001,-4.85202 1.05999,-8.335022 1.502991,-11.81601c0.64599,-0.735016 1.25897,-0.832001 1.817989,0.096008c0.39398,2.330994 -0.109989,4.912994 1.98102,7.054993c0.991941,-9.328003 2.170961,-18.389008 2.213991,-27.527008c0.013,-2.628998 0.32196,-5.17099 1.00897,-7.609985l-11.161991,0l0,-0.001007z" id="svg_15"/>
  <path name="指甲" fill-rule="evenodd" clip-rule="evenodd" fill="#FFF100" d="m171.596008,244.760986c0.057983,5.14801 0.333984,10.295013 0.457031,15.442993c0.060974,2.556 0.565979,4.932007 1.895996,7.835999c1.777954,-3.257996 0.250977,-6.384979 2.295959,-9.186981c1.533997,3.514008 1.531006,6.778992 1.859009,9.979004c-0.063965,1.030975 -0.523987,2.384003 0.944031,2.639984c1.089966,0.188019 0.826965,-0.953003 0.856995,-1.658997c0.087952,-2.609985 0.177002,-5.220001 0.264954,-7.82901c0.407043,-0.531982 0.223022,-2.095978 1.609009,-0.924988c1.361023,3.658997 0.496033,8.109985 4.229004,12.005005c0,-5.320007 0,-9.688995 0,-14.05899c0.173035,-0.022003 0.345032,-0.045013 0.518005,-0.067017c1.156982,3.460999 2.314026,6.921997 3.473022,10.382996c1.557983,-5.571991 -0.497986,-10.751984 -0.684998,-16.636993c1.592957,1.218994 2.669983,2.179993 3.882996,2.919006c0.711975,0.43399 1.752014,0.416992 2.252991,-0.347992c0.263977,-0.403015 0.138,-1.333008 -0.164001,-1.792023c-3.320007,-5.050995 -4.390015,-11.553986 -10.125977,-15.079987c-2.016052,-1.240021 -3.393005,-3.132019 -3.973999,-5.494019l-11.653015,0c1.20697,3.808014 2.016968,7.710022 2.062988,11.872009z" id="svg_16"/>
  <path name="皮肤" fill-rule="evenodd" clip-rule="evenodd" fill="#E3F337" d="m64.879028,95.647003c-2.008968,-0.006996 -4.096008,0.348999 -5.075008,0.694c-8.73999,3.084984 -13.221008,10.106995 -13.667969,18.53299c-0.894051,16.821014 -6.369022,32.610992 -11.131042,48.27002c-6.446959,21.200989 -10.941959,42.674988 -15.085999,64.319977c-0.344,1.796021 -0.547979,3.696014 -1.04401,5.450012l11.166019,-0.013c0.42602,-1.515991 0.996031,-2.993011 1.736021,-4.424988c8.190981,-15.858002 13.609991,-32.511017 17.568968,-50.002014c3.874023,-17.11499 12.06702,-33.121002 15.579041,-50.495003l0,-0.002983c-1.304077,-9.69101 -0.049072,-32.275024 -0.046021,-32.32901z" id="svg_17"/>
  <path name="皮肤" fill-rule="evenodd" clip-rule="evenodd" fill="#E3F337" d="m152.315002,180.434998c2.809998,14.455017 7.154968,28.282013 12.963989,41.625c1.575012,3.618988 3.100037,7.186005 4.257996,10.839996l11.653992,0.01001c-0.122009,-0.494019 -0.222961,-1.001007 -0.271973,-1.536011c-2.93103,-31.395996 -12.820984,-61.200989 -21.127991,-91.352997c-1.903992,-6.915009 -4.03302,-13.647003 -3.936035,-20.912994c0.028992,-2.289001 -0.497009,-4.626015 -1.044006,-6.875c-2.437988,-10.04599 -9.430969,-16.174011 -18.586975,-16.429008c0,0 0.716003,16.502007 0.578979,21.210014c0,0 3.037048,6.24099 -0.71698,12.975006c1.822998,5.96698 3.530029,11.971985 5.492981,17.892975c3.602051,10.858002 8.574036,21.428009 10.736023,32.553009z" id="svg_18"/>
 </g>
</svg>